<?xml version="1.0" encoding="utf-8"?>
<!-- Generator: Adobe Illustrator 19.2.1, SVG Export Plug-In . SVG Version: 6.00 Build 0)  -->
<svg version="1.1" id="Capa_1" xmlns="http://www.w3.org/2000/svg" xmlns:xlink="http://www.w3.org/1999/xlink" x="0px" y="0px"
	 viewBox="0 0 256 256" style="enable-background:new 0 0 256 256;" xml:space="preserve">
<style type="text/css">
	.st0{fill:#F7B830;}
</style>
<g>
	<path class="st0" d="M23.6,53.1c2.1-1,3.1-3.5,2.1-5.6c-1-2.1-3.5-3.1-5.6-2.1c-3,1.3-5.7,3.1-8.2,5.2c-1.8,1.5-2,4.2-0.4,6
		c0.8,1,2,1.5,3.2,1.5c1,0,2-0.3,2.8-1C19.3,55.4,21.4,54.1,23.6,53.1z"/>
	<path class="st0" d="M38.5,50.8H47c2.4,0,4.3-1.9,4.3-4.3c0-2.4-1.9-4.3-4.3-4.3h-8.5c-2.4,0-4.3,1.9-4.3,4.3
		C34.2,48.9,36.1,50.8,38.5,50.8z"/>
	<path class="st0" d="M64.1,50.8h8.5c2.4,0,4.3-1.9,4.3-4.3c0-2.4-1.9-4.3-4.3-4.3h-8.5c-2.4,0-4.3,1.9-4.3,4.3
		C59.8,48.9,61.7,50.8,64.1,50.8z"/>
	<path class="st0" d="M47,101.9h-8.5c-2.4,0-4.3,1.9-4.3,4.3c0,2.4,1.9,4.3,4.3,4.3H47c2.4,0,4.3-1.9,4.3-4.3
		C51.3,103.8,49.4,101.9,47,101.9z"/>
	<path class="st0" d="M98.2,101.9h-8.5c-2.4,0-4.3,1.9-4.3,4.3c0,2.4,1.9,4.3,4.3,4.3h8.5c2.4,0,4.3-1.9,4.3-4.3
		C102.4,103.8,100.5,101.9,98.2,101.9z"/>
	<path class="st0" d="M72.6,101.9h-8.5c-2.4,0-4.3,1.9-4.3,4.3c0,2.4,1.9,4.3,4.3,4.3h8.5c2.4,0,4.3-1.9,4.3-4.3
		C76.9,103.8,75,101.9,72.6,101.9z"/>
	<path class="st0" d="M23.6,99.6c-2.2-1-4.3-2.3-6.1-3.9c-1.8-1.5-4.5-1.3-6,0.4c-1.5,1.8-1.3,4.5,0.4,6c2.5,2.1,5.2,3.9,8.2,5.2
		c0.6,0.3,1.2,0.4,1.8,0.4c1.6,0,3.2-0.9,3.9-2.5C26.7,103.1,25.8,100.6,23.6,99.6z"/>
	<path class="st0" d="M123.7,101.9h-8.5c-2.4,0-4.3,1.9-4.3,4.3c0,2.4,1.9,4.3,4.3,4.3h8.5c2.4,0,4.3-1.9,4.3-4.3
		C128,103.8,126.1,101.9,123.7,101.9z"/>
	<path class="st0" d="M200.4,101.9h-8.5c-2.4,0-4.3,1.9-4.3,4.3c0,2.4,1.9,4.3,4.3,4.3h8.5c2.4,0,4.3-1.9,4.3-4.3
		C204.7,103.8,202.8,101.9,200.4,101.9z"/>
	<path class="st0" d="M226,101.9h-8.5c-2.4,0-4.3,1.9-4.3,4.3c0,2.4,1.9,4.3,4.3,4.3h8.5c2.4,0,4.3-1.9,4.3-4.3
		C230.3,103.8,228.4,101.9,226,101.9z"/>
	<path class="st0" d="M149.3,101.9h-8.5c-2.4,0-4.3,1.9-4.3,4.3c0,2.4,1.9,4.3,4.3,4.3h8.5c2.4,0,4.3-1.9,4.3-4.3
		C153.6,103.8,151.7,101.9,149.3,101.9z"/>
	<path class="st0" d="M174.9,101.9h-8.5c-2.4,0-4.3,1.9-4.3,4.3c0,2.4,1.9,4.3,4.3,4.3h8.5c2.4,0,4.3-1.9,4.3-4.3
		C179.1,103.8,177.2,101.9,174.9,101.9z"/>
	<path class="st0" d="M23.6,227.5c-2.2-1-4.3-2.3-6.1-3.9c-1.8-1.5-4.5-1.3-6,0.4c-1.5,1.8-1.3,4.5,0.4,6c2.5,2.1,5.2,3.9,8.2,5.2
		c0.6,0.3,1.2,0.4,1.8,0.4c1.6,0,3.2-0.9,3.9-2.5C26.7,231,25.8,228.5,23.6,227.5z"/>
	<path class="st0" d="M72.6,229.8h-8.5c-2.4,0-4.3,1.9-4.3,4.3c0,2.4,1.9,4.3,4.3,4.3h8.5c2.4,0,4.3-1.9,4.3-4.3
		C76.9,231.7,75,229.8,72.6,229.8z"/>
	<path class="st0" d="M47,229.8h-8.5c-2.4,0-4.3,1.9-4.3,4.3c0,2.4,1.9,4.3,4.3,4.3H47c2.4,0,4.3-1.9,4.3-4.3
		C51.3,231.7,49.4,229.8,47,229.8z"/>
	<path class="st0" d="M149.3,229.8h-8.5c-2.4,0-4.3,1.9-4.3,4.3c0,2.4,1.9,4.3,4.3,4.3h8.5c2.4,0,4.3-1.9,4.3-4.3
		C153.6,231.7,151.7,229.8,149.3,229.8z"/>
	<path class="st0" d="M162.1,234c0,2.4,1.9,4.3,4.3,4.3h8.5c2.4,0,4.3-1.9,4.3-4.3c0-2.4-1.9-4.3-4.3-4.3h-8.5
		C164,229.8,162.1,231.7,162.1,234z"/>
	<path class="st0" d="M191.9,238.3h8.5c2.4,0,4.3-1.9,4.3-4.3c0-2.4-1.9-4.3-4.3-4.3h-8.5c-2.4,0-4.3,1.9-4.3,4.3
		C187.7,236.4,189.6,238.3,191.9,238.3z"/>
	<path class="st0" d="M123.7,229.8h-8.5c-2.4,0-4.3,1.9-4.3,4.3c0,2.4,1.9,4.3,4.3,4.3h8.5c2.4,0,4.3-1.9,4.3-4.3
		C128,231.7,126.1,229.8,123.7,229.8z"/>
	<path class="st0" d="M217.5,238.3h8.5c2.4,0,4.3-1.9,4.3-4.3c0-2.4-1.9-4.3-4.3-4.3h-8.5c-2.4,0-4.3,1.9-4.3,4.3
		C213.2,236.4,215.1,238.3,217.5,238.3z"/>
	<path class="st0" d="M98.2,229.8h-8.5c-2.4,0-4.3,1.9-4.3,4.3c0,2.4,1.9,4.3,4.3,4.3h8.5c2.4,0,4.3-1.9,4.3-4.3
		C102.4,231.7,100.5,229.8,98.2,229.8z"/>
	<path class="st0" d="M187.7,165.9c0,9.4,7.6,17,17,17c9.4,0,17-7.6,17-17c0-9.4-7.6-17-17-17C195.3,148.8,187.7,156.5,187.7,165.9z
		 M204.7,157.3c4.7,0,8.5,3.8,8.5,8.5s-3.8,8.5-8.5,8.5c-4.7,0-8.5-3.8-8.5-8.5S200,157.3,204.7,157.3z"/>
	<path class="st0" d="M183.2,25.2L160,2.1c-1.9-1.9-5-1.9-6.9,0l-8.7,8.7l-8.7-8.7c-1.9-1.9-5-1.9-6.9,0l-23.2,23.2H34.2
		c-18.8,0-34.1,15.3-34.1,34.1v165.6c0,16.8,13.7,30.5,30.5,30.5h225.2v-59.7V136V93.4v-8.5V25.2C255.8,25.2,183.2,25.2,183.2,25.2z
		 M156.6,10.7l14.5,14.5l59.7,59.7h-23l-48-48c-1.8-1.8-4.6-1.7-6.5,0l-48,48h-23l68.1-68.1l0,0L156.6,10.7z M195.7,84.9h-78.4
		l39.2-39.2L195.7,84.9z M132.3,10.7l6.1,6.1L70.3,84.9H58.1l59.7-59.7L132.3,10.7z M34.2,33.7h62.9l-8.8,8.8
		c-1.3,0.4-2.3,1.4-2.7,2.7L46,84.9H34.2c-14.1,0-25.6-11.5-25.6-25.6S20.1,33.7,34.2,33.7z M247.3,187.2h-46.9
		c-11.7,0-21.3-9.6-21.3-21.3s9.6-21.3,21.3-21.3h46.9V187.2z M247.3,101.9h-4.3c-2.4,0-4.3,1.9-4.3,4.3c0,2.4,1.9,4.3,4.3,4.3h4.3
		V136h-46.9c-16.4,0-29.8,13.4-29.8,29.8s13.4,29.8,29.8,29.8h46.9v34.1h-4.3c-2.4,0-4.3,1.9-4.3,4.3c0,2.4,1.9,4.3,4.3,4.3h4.3v8.5
		H30.6c-12.1,0-22-9.8-22-22v-9.4c1-1.1,1.5-2.6,1-4.1c-0.7-2.3-1-4.8-1-7.2V87.6c1-1.1,1.5-2.6,1-4.1c-0.1-0.3-0.1-0.6-0.2-0.8
		c0.4,0.4,0.8,0.8,1.2,1.2c0.4,0.4,0.7,0.7,1.1,1c0.5,0.4,1,0.8,1.5,1.2c0.4,0.3,0.8,0.6,1.2,0.9c0.5,0.4,1,0.7,1.6,1.1
		c0.4,0.3,0.9,0.5,1.3,0.8c0.6,0.3,1.1,0.6,1.7,0.9c0.4,0.2,0.9,0.5,1.4,0.7c0.6,0.3,1.2,0.5,1.9,0.7c0.5,0.2,0.9,0.4,1.4,0.5
		c0.7,0.2,1.4,0.4,2,0.6c0.5,0.1,0.9,0.3,1.4,0.3c0.8,0.2,1.6,0.3,2.3,0.4c0.4,0.1,0.8,0.1,1.2,0.2c1.2,0.1,2.4,0.2,3.6,0.2h16.3
		h12.1h12.2h12.1H108h97.2h21.1h12.1h9V101.9z M242.8,84.9l-34.1-34.1h0.2c2.4,0,4.3-1.9,4.3-4.3c0-2.4-1.9-4.3-4.3-4.3h-8.5
		c-0.1,0-0.1,0-0.2,0l-8.6-8.6h55.6v51.1H242.8z"/>
	<path class="st0" d="M234.5,42.3H226c-2.4,0-4.3,1.9-4.3,4.3c0,2.4,1.9,4.3,4.3,4.3h8.5c2.4,0,4.3-1.9,4.3-4.3
		C238.8,44.2,236.9,42.3,234.5,42.3z"/>
</g>
</svg>
