<?xml version="1.0" encoding="utf-8"?>
<!-- Generator: Adobe Illustrator 19.2.1, SVG Export Plug-In . SVG Version: 6.00 Build 0)  -->
<svg version="1.1" id="Capa_1" xmlns="http://www.w3.org/2000/svg" xmlns:xlink="http://www.w3.org/1999/xlink" x="0px" y="0px"
	 viewBox="0 0 512 512" style="enable-background:new 0 0 512 512;" xml:space="preserve">
<style type="text/css">
	.st0{fill:#F7B830;}
</style>
<g>
	<path class="st0" d="M352,352c-4.4,0-8,3.6-8,8s3.6,8,8,8c8.8,0,16,7.2,16,16c0,4.4,3.6,8,8,8s8-3.6,8-8
		C384,366.4,369.6,352,352,352z"/>
	<path class="st0" d="M424,0H88C74.8,0,64,10.8,64,24v432c0,13.2,10.8,24,24,24h176.1c0.1,0.8,0.3,1.6,0.7,2.3
		c1.1,2.4,3.3,4.1,5.8,4.5l20.8,3.8l18.3,19c1.5,1.6,3.6,2.4,5.8,2.4c0.3,0,0.7,0,1-0.1c2.5-0.3,4.7-1.8,6-4l16-28h27.1l15.8,27.9
		c1.2,2.2,3.5,3.7,6,4c0.3,0,0.7,0.1,1,0.1c2.2,0,4.2-0.9,5.8-2.4l18.3-19l20.8-3.8c2.6-0.5,4.7-2.1,5.8-4.5c1.1-2.3,1-5.1-0.3-7.3
		c5.8-4.5,9.4-11.5,9.4-19V24C448,10.8,437.2,0,424,0z M80,456V24c0-4.4,3.6-8,8-8h336c4.4,0,8,3.6,8,8v432c0,1.7-0.6,3.4-1.6,4.7
		L406,418.3c6.3-9.9,10-21.7,10-34.3c0-35.3-28.7-64-64-64s-64,28.7-64,64c0,12.6,3.7,24.4,10,34.3L271.4,464H88
		C83.6,464,80,460.4,80,456z M352,432c-26.5,0-48-21.5-48-48s21.5-48,48-48s48,21.5,48,48S378.5,432,352,432z M313.8,490.8
		l-12.7-13.2c-1.2-1.2-2.7-2-4.3-2.3l-12.1-2.2l24.3-41.8c8.3,7.6,18.6,13,30,15.4L313.8,490.8z M347.5,464l4.5-7.8l4.4,7.8H347.5z
		 M407,475.3c-1.7,0.3-3.2,1.1-4.3,2.3l-12.7,13.1l-25-44.1c11.4-2.4,21.7-7.8,30.1-15.4l24,41.8L407,475.3z"/>
	<path class="st0" d="M320,120c4.4,0,8-3.6,8-8s-3.6-8-8-8H192c-4.4,0-8,3.6-8,8s3.6,8,8,8H320z"/>
	<path class="st0" d="M360,144H152c-4.4,0-8,3.6-8,8s3.6,8,8,8h208c4.4,0,8-3.6,8-8S364.4,144,360,144z"/>
	<path class="st0" d="M176,224h8c4.4,0,8-3.6,8-8s-3.6-8-8-8h-8c-4.4,0-8,3.6-8,8S171.6,224,176,224z"/>
	<path class="st0" d="M176,264h8c4.4,0,8-3.6,8-8s-3.6-8-8-8h-8c-4.4,0-8,3.6-8,8S171.6,264,176,264z"/>
	<path class="st0" d="M176,304h8c4.4,0,8-3.6,8-8s-3.6-8-8-8h-8c-4.4,0-8,3.6-8,8S171.6,304,176,304z"/>
	<path class="st0" d="M336,208H216c-4.4,0-8,3.6-8,8s3.6,8,8,8h120c4.4,0,8-3.6,8-8S340.4,208,336,208z"/>
	<path class="st0" d="M336,248H216c-4.4,0-8,3.6-8,8s3.6,8,8,8h120c4.4,0,8-3.6,8-8S340.4,248,336,248z"/>
	<path class="st0" d="M336,288H216c-4.4,0-8,3.6-8,8s3.6,8,8,8h120c4.4,0,8-3.6,8-8S340.4,288,336,288z"/>
	<path class="st0" d="M144,376c0,4.4,3.6,8,8,8h72c4.4,0,8-3.6,8-8s-3.6-8-8-8h-72C147.6,368,144,371.6,144,376z"/>
	<path class="st0" d="M256,432H143.2c-3.2-15.6-15.5-28-31.2-31.2V79.2c15.6-3.2,28-15.5,31.2-31.2h225.6
		c3.2,15.6,15.5,28,31.2,31.2V320c0,4.4,3.6,8,8,8s8-3.6,8-8V72c0-4.4-3.6-8-8-8c-13.2,0-24-10.8-24-24c0-4.4-3.6-8-8-8H136
		c-4.4,0-8,3.6-8,8c0,13.2-10.8,24-24,24c-4.4,0-8,3.6-8,8v336c0,4.4,3.6,8,8,8c13.2,0,24,10.8,24,24c0,4.4,3.6,8,8,8h120
		c4.4,0,8-3.6,8-8S260.4,432,256,432z"/>
</g>
</svg>
