<?xml version="1.0" encoding="utf-8"?>
<!-- Generator: Adobe Illustrator 19.2.1, SVG Export Plug-In . SVG Version: 6.00 Build 0)  -->
<svg version="1.1" id="Capa_1" xmlns="http://www.w3.org/2000/svg" xmlns:xlink="http://www.w3.org/1999/xlink" x="0px" y="0px"
	 viewBox="0 0 256 256" style="enable-background:new 0 0 256 256;" xml:space="preserve">
<style type="text/css">
	.st0{fill:#F7B830;}
</style>
<g>
	<path class="st0" d="M251.8,2.1c-1.7-1.7-4.3-1.7-6,0l-15.7,15.7h-98.7l-124,125c-2.8,2.8-4.4,6.6-4.4,10.6c0,4,1.6,7.8,4.4,10.6
		l86.7,86.7c2.9,2.9,6.7,4.4,10.6,4.4c3.8,0,7.7-1.5,10.6-4.4l120.8-124V23.8l15.7-15.7C253.4,6.5,253.4,3.8,251.8,2.1z
		 M227.6,123.2L109.3,244.8c-2.5,2.5-6.6,2.5-9.2,0L13.4,158c-1.2-1.2-1.9-2.9-1.9-4.6s0.7-3.4,1.9-4.6L134.9,26.3h86.7l-20.5,20.5
		c-3.4-2.2-7.4-3.5-11.7-3.5c-11.7,0-21.2,9.5-21.2,21.2s9.5,21.2,21.2,21.2s21.2-9.5,21.2-21.2c0-4.3-1.3-8.3-3.5-11.7l20.5-20.5
		V123.2z M202.2,64.4c0,7-5.7,12.7-12.7,12.7s-12.7-5.7-12.7-12.7s5.7-12.7,12.7-12.7c2,0,3.8,0.5,5.4,1.3l-8.4,8.4
		c-1.7,1.7-1.7,4.3,0,6c0.8,0.8,1.9,1.2,3,1.2s2.2-0.4,3-1.2l8.4-8.4C201.7,60.7,202.2,62.5,202.2,64.4z"/>
	<path class="st0" d="M172.1,90.4c1.7-1.7,1.7-4.3,0-6c-1.7-1.7-4.3-1.7-6,0l-3.2,3.2c-7.6-6.1-17.2-9-27-8.2
		c-6.8,0.6-13,3.9-17.4,9.3c-4.5,5.6-6.6,12.9-5.7,20l3.2,25.8l-37.9,37.9c-8.7-11.6-7.8-28.2,2.8-38.7c1.7-1.7,1.7-4.3,0-6
		c-1.7-1.7-4.3-1.7-6,0c-13.9,13.9-14.8,35.8-2.8,50.8l-4.8,4.8c-1.7,1.7-1.7,4.3,0,6c0.8,0.8,1.9,1.2,3,1.2c1.1,0,2.2-0.4,3-1.2
		l4.8-4.8c6.8,5.4,15.1,8.4,23.8,8.4c1.1,0,2.1,0,3.2-0.1c6.8-0.6,13-3.9,17.4-9.3c4.5-5.6,6.6-12.9,5.7-20l-3.2-25.8l37.9-37.9
		c8.7,11.6,7.8,28.2-2.8,38.7c-1.7,1.7-1.7,4.3,0,6c1.7,1.7,4.3,1.7,6,0c13.9-13.9,14.8-35.8,2.8-50.8L172.1,90.4z M119.8,164.4
		c0.6,4.9-0.8,9.8-3.9,13.6c-2.9,3.6-7,5.8-11.5,6.2c-7.3,0.6-14.4-1.5-20.2-5.8l33.2-33.3L119.8,164.4z M121.2,107.6
		c-0.6-4.9,0.8-9.8,3.9-13.6c2.9-3.6,7-5.8,11.5-6.2c7.3-0.6,14.4,1.5,20.2,5.8l-33.3,33.3L121.2,107.6z"/>
</g>
</svg>
