<?xml version="1.0" encoding="utf-8"?>
<!-- Generator: Adobe Illustrator 19.2.1, SVG Export Plug-In . SVG Version: 6.00 Build 0)  -->
<svg version="1.1" id="Слой_1" xmlns="http://www.w3.org/2000/svg" xmlns:xlink="http://www.w3.org/1999/xlink" x="0px" y="0px"
	 viewBox="0 0 377 350.9" style="enable-background:new 0 0 377 350.9;" xml:space="preserve">
<style type="text/css">
	.st0{fill:#CCCCCC;}
</style>
<path class="st0" d="M366.2,170.9c-6,0-10.8,4.8-10.8,10.8v98.2c0,26.7-21.8,48.4-48.4,48.4H70c-26.7,0-48.4-21.8-48.4-48.4v-99.8
	c0-6-4.8-10.8-10.8-10.8S0,174.1,0,180.1v99.8c0,38.6,31.4,70,70,70h237c38.6,0,70-31.4,70-70v-98.2
	C377,175.8,372.2,170.9,366.2,170.9L366.2,170.9z M366.2,170.9"/>
<path class="st0" d="M180.9,264.2c2.1,2.1,4.9,3.2,7.6,3.2c2.7,0,5.5-1,7.6-3.2l68.6-68.6c4.2-4.2,4.2-11,0-15.3
	c-4.2-4.2-11-4.2-15.3,0l-50.2,50.2V11.4c0-6-4.8-10.8-10.8-10.8s-10.8,4.8-10.8,10.8v219.1l-50.2-50.2c-4.2-4.2-11-4.2-15.3,0
	c-4.2,4.2-4.2,11,0,15.3L180.9,264.2z M180.9,264.2"/>
</svg>
