<?xml version="1.0" encoding="utf-8"?>
<!-- Generator: Adobe Illustrator 19.2.1, SVG Export Plug-In . SVG Version: 6.00 Build 0)  -->
<svg version="1.1" id="Layer_1" xmlns="http://www.w3.org/2000/svg" xmlns:xlink="http://www.w3.org/1999/xlink" x="0px" y="0px"
	 viewBox="0 0 256 256" style="enable-background:new 0 0 256 256;" xml:space="preserve">
<style type="text/css">
	.st0{fill:#F7B830;}
</style>
<g transform="translate(1 1)">
	<g>
		<g>
			<path class="st0" d="M229.5,94.2c-2.5,0-4.1,1.6-4.1,4.1v4.1c0,2.5,1.6,4.1,4.1,4.1c2.5,0,4.1-1.6,4.1-4.1v-4.1
				C233.6,95.8,232,94.2,229.5,94.2z"/>
			<path class="st0" d="M229.5,61c-2.5,0-4.1,1.6-4.1,4.1v9.4c0,2.5,1.6,4.1,4.1,4.1c2.5,0,4.1-2.1,4.1-4.1v-9.4
				C233.6,62.6,232,61,229.5,61z"/>
			<path class="st0" d="M225.4,40.9c0,2.5,1.6,4.1,4.1,4.1c2.5,0,4.1-1.6,4.1-4.1v-8.2h-8.2c-2.5,0-4.1,1.6-4.1,4.1
				C221.3,39.3,222.9,40.9,225.4,40.9z"/>
			<path class="st0" d="M79,40.9h8.2c2.1,0,4.1-1.6,4.1-4.1c0-2.5-1.6-4.1-4.1-4.1H79c-2.5,0-4.1,1.6-4.1,4.1
				C74.9,39.3,76.6,40.9,79,40.9z"/>
			<path class="st0" d="M108.1,40.9h8.2c2.5,0,4.1-1.6,4.1-4.1c0-2.5-1.6-4.1-4.1-4.1h-8.2c-2.5,0-4.1,1.6-4.1,4.1
				C104,39.3,105.7,40.9,108.1,40.9z"/>
			<path class="st0" d="M49.5,40.9h8.2c2.5,0,4.1-1.6,4.1-4.1c0-2.5-1.6-4.1-4.1-4.1h-8.2c-2.5,0-4.1,1.6-4.1,4.1
				C45.4,39.3,47,40.9,49.5,40.9z"/>
			<path class="st0" d="M166.8,40.9h8.2c2.5,0,4.1-1.6,4.1-4.1c0-2.5-1.6-4.1-4.1-4.1h-8.2c-2.5,0-4.1,1.6-4.1,4.1
				C162.7,39.3,164.3,40.9,166.8,40.9z"/>
			<path class="st0" d="M137.7,40.9h8.2c2.1,0,4.1-1.6,4.1-4.1c0-2.5-1.6-4.1-4.1-4.1h-8.2c-2.5,0-4.1,1.6-4.1,4.1
				C133.6,39.3,135.2,40.9,137.7,40.9z"/>
			<path class="st0" d="M196.3,40.9h8.2c2.1,0,4.1-1.6,4.1-4.1c0-2.5-1.6-4.1-4.1-4.1h-8.2c-2.5,0-4.1,1.6-4.1,4.1
				C192.2,39.3,193.8,40.9,196.3,40.9z"/>
			<path class="st0" d="M24.5,45c2.5,0,4.1-1.6,4.1-4.1c2.5,0,4.1-1.6,4.1-4.1c0-2.5-1.6-4.1-4.1-4.1h-8.2v8.2
				C20.4,43.4,22,45,24.5,45z"/>
			<path class="st0" d="M24.5,133.6c2.5,0,4.1-1.6,4.1-4.1v-8.6c0-2.5-1.6-4.1-4.1-4.1s-4.1,1.6-4.1,4.1v8.6
				C20.4,131.9,22,133.6,24.5,133.6z"/>
			<path class="st0" d="M24.5,104c2.5,0,4.1-1.6,4.1-4.1v-8.6c0-2.5-1.6-4.1-4.1-4.1s-4.1,1.6-4.1,4.1v8.6
				C20.4,102.4,22,104,24.5,104z"/>
			<path class="st0" d="M24.5,74.5c2.5,0,4.1-1.6,4.1-4.1v-8.6c0-2.5-1.6-4.1-4.1-4.1s-4.1,1.6-4.1,4.1v8.6
				C20.4,72.9,22,74.5,24.5,74.5z"/>
			<path class="st0" d="M24.5,163.5c2.5,0,4.1-2.1,4.1-4.1v-8.6c0-2.5-1.6-4.1-4.1-4.1s-4.1,1.6-4.1,4.1v8.6
				C20.4,161.8,22,163.5,24.5,163.5z"/>
			<path class="st0" d="M32.7,184.4c0-2.5-1.6-4.1-4.1-4.1c0-2.5-1.6-4.1-4.1-4.1s-4.1,1.6-4.1,4.1v8.2h8.2
				C31.1,188.5,32.7,186.9,32.7,184.4z"/>
			<path class="st0" d="M86,180.3h-8.2c-2.5,0-4.1,1.6-4.1,4.1c0,2.5,1.6,4.1,4.1,4.1H86c2.5,0,4.1-1.6,4.1-4.1
				C90.1,181.9,88.5,180.3,86,180.3z"/>
			<path class="st0" d="M49.1,188.5h8.2c2.5,0,4.1-1.6,4.1-4.1c0-2.5-1.6-4.1-4.1-4.1h-8.2c-2.5,0-4.1,1.6-4.1,4.1
				C45,186.9,46.6,188.5,49.1,188.5z"/>
			<path class="st0" d="M114.7,180.3h-8.2c-2.5,0-4.1,1.6-4.1,4.1c0,2.5,1.6,4.1,4.1,4.1h8.2c2.5,0,4.1-1.6,4.1-4.1
				C118.8,181.9,117.2,180.3,114.7,180.3z"/>
			<path class="st0" d="M139.3,180.3h-4.1c-2.5,0-4.1,1.6-4.1,4.1c0,2.5,1.6,4.1,4.1,4.1h4.1c2.5,0,4.1-1.6,4.1-4.1
				C143.4,181.9,141.8,180.3,139.3,180.3z"/>
			<path class="st0" d="M250,16.3H4v188.6h155.8v28.7c0,1.6,0.8,3.3,2.5,3.7c1.6,0.8,3.3,0.4,4.5-0.8l21.7-21.7l21.7,21.7
				c0.8,0.8,1.6,1.2,2.9,1.2c0.4,0,1.2,0,1.6-0.4c1.6-0.4,2.5-2.1,2.5-3.7v-28.7H250V16.3z M209,223.8l-17.6-17.6
				c-0.8-0.8-1.6-1.2-2.9-1.2s-2.1,0.4-2.9,1.2L168,223.8v-18.9v-25.8c12.3,7.4,28.7,7.4,41,0v25.8L209,223.8L209,223.8z
				 M195.3,175.5c-0.2,0-0.4,0.1-0.6,0.1c-0.3,0.1-0.5,0.1-0.8,0.1c-0.3,0-0.6,0.1-0.8,0.1c-0.2,0-0.4,0.1-0.7,0.1
				c-0.3,0-0.6,0.1-0.9,0.1c-0.3,0-0.5,0-0.8,0.1c-0.3,0-0.5,0-0.8,0.1c-0.5,0-1,0-1.6,0c-0.5,0-1,0-1.5,0c-0.3,0-0.6,0-0.9-0.1
				c-0.2,0-0.4,0-0.6,0c-0.4,0-0.8-0.1-1.2-0.1c-0.1,0-0.1,0-0.2,0c-0.9-0.1-1.9-0.3-2.8-0.5c-0.5-0.1-1-0.2-1.4-0.4
				c-0.9-0.3-1.9-0.6-2.8-0.9c-0.9-0.3-1.8-0.7-2.7-1.2c-0.3-0.1-0.6-0.3-0.9-0.5c-0.2-0.1-0.3-0.2-0.5-0.2c0,0,0,0,0,0
				c-10.2-5.6-17.2-16.4-17.2-28.8c0-18,14.8-32.8,32.8-32.8s32.8,14.8,32.8,32.8C221.3,159.1,210.1,172.3,195.3,175.5z
				 M241.8,196.7h-24.6v-24.1c7.6-7.5,12.3-17.8,12.3-29.2c0-22.5-18.4-41-41-41s-41,18.4-41,41c0,11.4,4.7,21.8,12.3,29.2v24.1
				H12.2V24.5h229.6L241.8,196.7L241.8,196.7z"/>
			<path class="st0" d="M196.7,69.6H57.3c-2.5,0-4.1,1.6-4.1,4.1s1.6,4.1,4.1,4.1h139.4c2.5,0,4.1-1.6,4.1-4.1
				S199.2,69.6,196.7,69.6z"/>
			<path class="st0" d="M147.5,94.2H57.3c-2.5,0-4.1,1.6-4.1,4.1s1.6,4.1,4.1,4.1h90.2c2.5,0,4.1-1.6,4.1-4.1S150,94.2,147.5,94.2z"
				/>
			<path class="st0" d="M57.3,127h77.9c2.5,0,4.1-1.6,4.1-4.1c0-2.5-1.6-4.1-4.1-4.1H57.3c-2.5,0-4.1,1.6-4.1,4.1
				C53.2,125.4,54.8,127,57.3,127z"/>
			<path class="st0" d="M57.3,155.7h77.9c2.5,0,4.1-1.6,4.1-4.1s-1.6-4.1-4.1-4.1H57.3c-2.5,0-4.1,1.6-4.1,4.1
				S54.8,155.7,57.3,155.7z"/>
		</g>
	</g>
</g>
</svg>
