<?xml version="1.0" encoding="utf-8"?>
<!-- Generator: Adobe Illustrator 19.2.1, SVG Export Plug-In . SVG Version: 6.00 Build 0)  -->
<svg version="1.1" id="Layer_1" xmlns="http://www.w3.org/2000/svg" xmlns:xlink="http://www.w3.org/1999/xlink" x="0px" y="0px"
	 viewBox="0 0 512 512" style="enable-background:new 0 0 512 512;" xml:space="preserve">
<g transform="translate(1 1)">
	<g>
		<g>
			<path d="M434.2-1H127H92.9C78.4-1,67.3,10.1,67.3,24.6v17.1h-8.5c-5.1,0-8.5,3.4-8.5,8.5s3.4,8.5,8.5,8.5h8.5v51.2h-8.5
				c-5.1,0-8.5,3.4-8.5,8.5s3.4,8.5,8.5,8.5h8.5v51.2h-8.5c-5.1,0-8.5,3.4-8.5,8.5s3.4,8.5,8.5,8.5h8.5v51.2h-8.5
				c-5.1,0-8.5,3.4-8.5,8.5s3.4,8.5,8.5,8.5h8.5v51.2h-8.5c-5.1,0-8.5,3.4-8.5,8.5s3.4,8.5,8.5,8.5h8.5V383h-8.5
				c-5.1,0-8.5,3.4-8.5,8.5s3.4,8.5,8.5,8.5h8.5v51.2h-8.5c-5.1,0-8.5,3.4-8.5,8.5s3.4,8.5,8.5,8.5h8.5v17.1
				c0,14.5,11.1,25.6,25.6,25.6H127h307.2c14.5,0,25.6-11.1,25.6-25.6V24.6C459.8,10.1,448.7-1,434.2-1z M84.3,485.4v-17.1h8.5
				c5.1,0,8.5-3.4,8.5-8.5s-3.4-8.5-8.5-8.5h-8.5v-51.2h8.5c5.1,0,8.5-3.4,8.5-8.5S98,383,92.9,383h-8.5v-51.2h8.5
				c5.1,0,8.5-3.4,8.5-8.5s-3.4-8.5-8.5-8.5h-8.5v-51.2h8.5c5.1,0,8.5-3.4,8.5-8.5s-3.4-8.5-8.5-8.5h-8.5v-51.2h8.5
				c5.1,0,8.5-3.4,8.5-8.5s-3.4-8.5-8.5-8.5h-8.5V127h8.5c5.1,0,8.5-3.4,8.5-8.5s-3.4-8.5-8.5-8.5h-8.5V58.7h8.5
				c5.1,0,8.5-3.4,8.5-8.5s-3.4-8.5-8.5-8.5h-8.5V24.6c0-5.1,3.4-8.5,8.5-8.5h25.6v477.9H92.9C87.7,493.9,84.3,490.5,84.3,485.4z
				 M442.7,485.4c0,5.1-3.4,8.5-8.5,8.5H135.5V16.1h298.7c5.1,0,8.5,3.4,8.5,8.5V485.4z"/>
			<path d="M348.9,332.5v-43.4c0-5.1-3.4-8.5-8.5-8.5H255c-5.1,0-8.5,3.4-8.5,8.5v10.3l-33.3-12c-4.3-1.7-9.4,0.9-11.1,5.1l-23,64
				c-0.9,2.6-0.9,5.1,0,6.8s3.4,3.4,5.1,4.3l31.9,11.3c-2.4,6.6-3.8,13.7-3.8,21.1c0,33.3,26.5,59.7,59.7,59.7
				c21.9,0,40.8-11.4,51.2-28.8c5.7,2,11.4,3.2,17,3.2c28.2,0,51.2-23,51.2-51.2C391.5,357.7,373,336.6,348.9,332.5z M263.5,297.7
				h68.3v42.7v25.6h-10.6c-5.9-8.5-13.9-15.4-23.4-19.9c-7-3.4-14.6-5.4-22.4-5.7l0.9-2.4l5.9-15.5c0.5-1.4,0.7-2.9,0.6-4.1
				c0.1-1.3-0.1-2.6-0.6-3.5c-0.9-1.7-3.4-3.4-5.1-4.3l-13.7-4.9L263.5,297.7L263.5,297.7z M197.8,354.8l17.1-48.6l34.6,12.1
				c0.9,0.7,1.9,1.2,2.9,1.5l10.8,4.2l-6.6,18c-11.3,3-22,9.4-29.6,18.5c-1,1.2-2,2.4-3,3.7L197.8,354.8z M272.1,442.7
				c-23.9,0-42.7-18.8-42.7-42.7c0-20.6,13.9-37.3,33-41.6c0.6,0,1.3,0,2-0.2c0.6-0.2,1.1-0.3,1.7-0.4c2-0.3,4-0.4,6-0.4
				c0.9,0,1.9,0,2.8,0.1c0,0,0.1,0,0.1,0c14.1,1,26.6,9.3,33.8,21.2c2.2,3.6,3.8,7.2,4.7,10.9c0.6,2.6,1,5.4,1.2,8.2c0,0,0,0,0,0
				c0,0.7,0.1,1.5,0.1,2.2c0,0.7,0,1.4-0.1,2.1c0,0.2,0,0.4,0,0.6c0,0.5-0.1,1-0.1,1.5c0,0.3-0.1,0.5-0.1,0.8c0,0.4-0.1,0.9-0.2,1.3
				c-0.1,0.4-0.1,0.9-0.2,1.4c0,0.2-0.1,0.4-0.1,0.5c-0.5,2.7-1.4,5.5-2.6,8c-0.3,0.6-0.4,1.3-0.5,2
				C304.1,432.8,289.4,442.7,272.1,442.7z M340.3,417.1c-3.4,0-6.8-0.9-10.2-1.7c0.2-1.5,0.5-3,0.7-4.5c0.5-2.8,0.8-5.7,0.9-8.7
				c0-0.7,0.1-1.5,0.1-2.2c0-0.9,0-1.9-0.1-2.8c0-0.3,0-0.5,0-0.8c0-0.7-0.1-1.4-0.2-2.1c0-0.2,0-0.5-0.1-0.7
				c-0.1-0.9-0.2-1.7-0.3-2.5c-0.1-0.6-0.2-1.1-0.3-1.7c0-0.2-0.1-0.3-0.1-0.5c-0.4-2-0.8-4-1.4-6h11c5.1,0,8.5-3.4,8.5-8.5v-24.7
				c14.5,4.3,25.6,17.1,25.6,33.3C374.5,401.8,359.1,417.1,340.3,417.1z"/>
			<path d="M186.7,101.4h85.3c5.1,0,8.5-3.4,8.5-8.5c0-5.1-3.4-8.5-8.5-8.5h-85.3c-5.1,0-8.5,3.4-8.5,8.5S181.6,101.4,186.7,101.4z"
				/>
			<path d="M391.5,144.1h-59.7c-5.1,0-8.5,3.4-8.5,8.5c0,5.1,3.4,8.5,8.5,8.5h59.7c5.1,0,8.5-3.4,8.5-8.5
				C400.1,147.5,396.7,144.1,391.5,144.1z"/>
			<path d="M220.9,144.1c-5.1,0-8.5,3.4-8.5,8.5c0,5.1,3.4,8.5,8.5,8.5h59.7c5.1,0,8.5-3.4,8.5-8.5c0-5.1-3.4-8.5-8.5-8.5H220.9z"/>
			<path d="M169.7,161.1h17.1c5.1,0,8.5-3.4,8.5-8.5c0-5.1-3.4-8.5-8.5-8.5h-17.1c-5.1,0-8.5,3.4-8.5,8.5
				C161.1,157.7,164.5,161.1,169.7,161.1z"/>
			<path d="M391.5,178.2h-17.1c-5.1,0-8.5,3.4-8.5,8.5s3.4,8.5,8.5,8.5h17.1c5.1,0,8.5-3.4,8.5-8.5S396.7,178.2,391.5,178.2z"/>
			<path d="M348.9,186.7c0-5.1-3.4-8.5-8.5-8.5H255c-5.1,0-8.5,3.4-8.5,8.5s3.4,8.5,8.5,8.5h85.3
				C345.5,195.3,348.9,191.9,348.9,186.7z"/>
			<path d="M169.7,195.3h34.1c5.1,0,8.5-3.4,8.5-8.5s-3.4-8.5-8.5-8.5h-34.1c-5.1,0-8.5,3.4-8.5,8.5S164.5,195.3,169.7,195.3z"/>
			<path d="M391.5,212.3h-85.3c-5.1,0-8.5,3.4-8.5,8.5s3.4,8.5,8.5,8.5h85.3c5.1,0,8.5-3.4,8.5-8.5S396.7,212.3,391.5,212.3z"/>
			<path d="M220.9,212.3c-5.1,0-8.5,3.4-8.5,8.5s3.4,8.5,8.5,8.5H255c5.1,0,8.5-3.4,8.5-8.5s-3.4-8.5-8.5-8.5H220.9z"/>
			<path d="M195.3,220.9c0-5.1-3.4-8.5-8.5-8.5h-17.1c-5.1,0-8.5,3.4-8.5,8.5s3.4,8.5,8.5,8.5h17.1
				C191.9,229.4,195.3,226,195.3,220.9z"/>
		</g>
	</g>
</g>
</svg>
