<?xml version="1.0" encoding="utf-8"?>
<!-- Generator: Adobe Illustrator 19.2.1, SVG Export Plug-In . SVG Version: 6.00 Build 0)  -->
<svg version="1.1" id="Слой_1" xmlns="http://www.w3.org/2000/svg" xmlns:xlink="http://www.w3.org/1999/xlink" x="0px" y="0px"
	 viewBox="0 0 361 361.9" style="enable-background:new 0 0 361 361.9;" xml:space="preserve">
<style type="text/css">
	.st0{fill:#CCCCCC;}
</style>
<path class="st0" d="M357.6,342.6l-87.7-87.7c23.5-27,37.8-62.3,37.8-100.9c0-84.9-69-153.8-153.8-153.8C69,0.2,0,69.2,0,154
	s69,153.8,153.8,153.8c38.6,0,73.8-14.2,100.9-37.8l87.7,87.7c2.1,2.1,4.9,3.2,7.6,3.2c2.7,0,5.5-1,7.6-3.2
	C361.8,353.6,361.8,346.7,357.6,342.6L357.6,342.6z M21.5,154c0-73,59.4-132.2,132.2-132.2c73,0,132.2,59.4,132.2,132.2
	s-59.3,132.3-132.2,132.3C80.9,286.3,21.5,227,21.5,154L21.5,154z M21.5,154"/>
</svg>
