<?xml version="1.0" encoding="utf-8"?>
<!-- Generator: Adobe Illustrator 15.0.0, SVG Export Plug-In  -->
<!DOCTYPE svg PUBLIC "-//W3C//DTD SVG 1.1//EN" "http://www.w3.org/Graphics/SVG/1.1/DTD/svg11.dtd" [
	<!ENTITY ns_flows "http://ns.adobe.com/Flows/1.0/">
]>
<svg version="1.1"
	 xmlns="http://www.w3.org/2000/svg" xmlns:xlink="http://www.w3.org/1999/xlink" xmlns:a="http://ns.adobe.com/AdobeSVGViewerExtensions/3.0/"
	 x="0px" y="0px" width="16px" height="36px" viewBox="0 0 16 36" enable-background="new 0 0 16 36" xml:space="preserve">
<defs>
</defs>
<path fill="#FFFFFF" d="M6.222,23.708h3.556c3.422,0,6.222-2.766,6.222-6.146V6.146C16,2.766,13.2,0,9.778,0H6.222
	C2.8,0,0,2.766,0,6.146v11.415C0,20.941,2.8,23.708,6.222,23.708z M1.778,6.146c0-2.415,2-4.391,4.444-4.391h3.556
	c2.444,0,4.444,1.976,4.444,4.391v11.415c0,2.415-2,4.39-4.444,4.39H6.222c-2.444,0-4.444-1.976-4.444-4.39V6.146z"/>
<path fill="#FFFFFF" d="M8,9.219c0.489,0,0.889-0.395,0.889-0.878V5.708c0-0.483-0.4-0.878-0.889-0.878S7.111,5.225,7.111,5.708
	v2.634C7.111,8.824,7.511,9.219,8,9.219z"/>
<path fill="#FFFFFF" d="M8,26.341c-0.489,0-0.889,0.395-0.889,0.878v5.795L6.4,32.312c-0.355-0.351-0.889-0.351-1.245,0
	c-0.355,0.352-0.355,0.878,0,1.229l2.223,2.195l0,0c0.044,0.043,0.089,0.087,0.133,0.087c0,0,0.044,0.044,0.088,0.044
	c0.045,0,0.045,0.044,0.089,0.044s0.044,0,0.089,0.044c0.044,0,0.044,0,0.089,0.044C7.911,36,8,36,8.044,36s0.133,0,0.178,0
	s0.044,0,0.089-0.044c0.044,0,0.044,0,0.089-0.044c0.044,0,0.044-0.044,0.089-0.044c0,0,0.044,0,0.044-0.044
	c0.044-0.044,0.089-0.087,0.133-0.087l0,0l2.222-2.195c0.355-0.351,0.355-0.878,0-1.229c-0.355-0.351-0.889-0.351-1.244,0
	l-0.756,0.703v-5.795C8.889,26.736,8.489,26.341,8,26.341z"/>
</svg>
