<?xml version="1.0" encoding="utf-8"?>
<!-- Generator: Adobe Illustrator 19.2.1, SVG Export Plug-In . SVG Version: 6.00 Build 0)  -->
<svg version="1.1" id="Layer_1" xmlns="http://www.w3.org/2000/svg" xmlns:xlink="http://www.w3.org/1999/xlink" x="0px" y="0px"
	 viewBox="0 0 503.6 503.6" style="enable-background:new 0 0 503.6 503.6;" xml:space="preserve">
<g transform="translate(1 1)">
	<g>
		<g>
			<path d="M477.4,57.8h-75.5v-8.4c0-9.2-7.6-16.8-16.8-16.8h-25.2v-8.4C359.9,9.9,349-1,334.7-1h-50.4c-14.3,0-25.2,10.9-25.2,25.2
				v8.4H234c-9.2,0-16.8,7.6-16.8,16.8v8.4h-75.5c-5,0-8.4,3.4-8.4,8.4v428.1c0,5,3.4,8.4,8.4,8.4h335.7c5,0,8.4-3.4,8.4-8.4V66.1
				C485.8,61.1,482.5,57.8,477.4,57.8z M427.1,376.7h-58.8c-5,0-8.4,3.4-8.4,8.4v58.8H192V108.1h25.2c0,9.2,7.6,16.8,16.8,16.8
				h151.1c9.2,0,16.8-7.6,16.8-16.8h25.2L427.1,376.7L427.1,376.7z M415.3,393.5l-38.6,38.6v-38.6H415.3z M234,49.4h33.6
				c5,0,8.4-3.4,8.4-8.4V24.2c0-5,3.4-8.4,8.4-8.4h50.4c5,0,8.4,3.4,8.4,8.4V41c0,5,3.4,8.4,8.4,8.4h33.6v16.8v33.6v8.4H234v-8.4
				V66.1V49.4z M469,485.8h-319V74.5h67.1v16.8h-33.6c-5,0-8.4,3.4-8.4,8.4v352.5c0,5,3.4,8.4,8.4,8.4h184.7c3.3,0,5.9-1.5,7.3-4
				l64.3-64.3c2-1.1,3.4-3.1,3.8-5.6c0.2-0.7,0.2-1.5,0.1-2.2V99.7c0-5-3.4-8.4-8.4-8.4h-33.6V74.5H469L469,485.8L469,485.8z"/>
			<path d="M276,150.1h-50.4c-5,0-8.4,3.4-8.4,8.4v50.4c0,5,3.4,8.4,8.4,8.4H276c5,0,8.4-3.4,8.4-8.4v-50.4
				C284.4,153.4,281,150.1,276,150.1z M267.6,200.4H234v-33.6h33.6V200.4z"/>
			<path d="M276,242.4h-50.4c-5,0-8.4,3.4-8.4,8.4v50.4c0,5,3.4,8.4,8.4,8.4H276c5,0,8.4-3.4,8.4-8.4v-50.4
				C284.4,245.8,281,242.4,276,242.4z M267.6,292.8H234v-33.6h33.6V292.8z"/>
			<path d="M276,334.7h-50.4c-5,0-8.4,3.4-8.4,8.4v50.4c0,5,3.4,8.4,8.4,8.4H276c5,0,8.4-3.4,8.4-8.4v-50.4
				C284.4,338.1,281,334.7,276,334.7z M267.6,385.1H234v-33.6h33.6V385.1z"/>
			<path d="M393.5,150.1H318c-5,0-8.4,3.4-8.4,8.4s3.4,8.4,8.4,8.4h75.5c5,0,8.4-3.4,8.4-8.4S398.5,150.1,393.5,150.1z"/>
			<path d="M318,208.8h50.4c5,0,8.4-3.4,8.4-8.4s-3.4-8.4-8.4-8.4H318c-5,0-8.4,3.4-8.4,8.4S312.9,208.8,318,208.8z"/>
			<path d="M393.5,242.4H318c-5,0-8.4,3.4-8.4,8.4s3.4,8.4,8.4,8.4h75.5c5,0,8.4-3.4,8.4-8.4S398.5,242.4,393.5,242.4z"/>
			<path d="M318,301.2h50.4c5,0,8.4-3.4,8.4-8.4s-3.4-8.4-8.4-8.4H318c-5,0-8.4,3.4-8.4,8.4S312.9,301.2,318,301.2z"/>
			<path d="M393.5,343.1H318c-5,0-8.4,3.4-8.4,8.4s3.4,8.4,8.4,8.4h75.5c5,0,8.4-3.4,8.4-8.4S398.5,343.1,393.5,343.1z"/>
			<path d="M334.7,385.1H318c-5,0-8.4,3.4-8.4,8.4s3.4,8.4,8.4,8.4h16.8c5,0,8.4-3.4,8.4-8.4C343.1,388.5,339.8,385.1,334.7,385.1z"
				/>
			<path d="M99.7,91.3V57.8V32.6C99.7,14.1,84.6-1,66.1-1H49.4C30.9-1,15.8,14.1,15.8,32.6v25.2v33.6v335.7c0,1.4,0.5,3.1,1.4,4.6
				l33,65.9c1.7,3.4,4.2,5,7.6,5c3.4,0,5.9-1.7,7.6-4.2l33.6-67.1c1.7-2.5,1.7-4.2,0.8-6.7V91.3z M32.6,414.5V99.7h16.8v311.5
				c-2.9,0.3-5.8,0.8-8.6,1.4C38,413,35.3,413.7,32.6,414.5z M32.6,66.1h50.4v16.8H32.6V66.1z M66.1,411.1V99.7h16.8v314.7
				C77.4,412.8,71.8,411.6,66.1,411.1z M49.4,15.8h16.8c9.2,0,16.8,7.6,16.8,16.8v16.8H32.6V32.6C32.6,23.3,40.1,15.8,49.4,15.8z
				 M57.8,475.7L36,431.4c11.9-4.1,24.9-4.8,37.2-2c0.2,0.1,0.5,0.1,0.7,0.2c0.2,0,0.3,0.1,0.5,0.1c1.7,0.5,3.4,1,5.1,1.6
				L57.8,475.7z"/>
		</g>
	</g>
</g>
</svg>
